<mxfile host="app.diagrams.net" modified="2020-11-22T15:16:03.770Z" agent="5.0 (Windows NT 10.0; Win64; x64) AppleWebKit/537.36 (KHTML, like Gecko) Chrome/86.0.4240.198 Safari/537.36" etag="u_RzvszYhdEfbbyj553K" version="13.10.0" type="github">
  <diagram id="C5RBs43oDa-KdzZeNtuy" name="Page-1">
    <mxGraphModel dx="782" dy="419" grid="1" gridSize="10" guides="1" tooltips="1" connect="1" arrows="1" fold="1" page="1" pageScale="1" pageWidth="827" pageHeight="1169" math="0" shadow="0">
      <root>
        <mxCell id="WIyWlLk6GJQsqaUBKTNV-0" />
        <mxCell id="WIyWlLk6GJQsqaUBKTNV-1" parent="WIyWlLk6GJQsqaUBKTNV-0" />
        <mxCell id="WIyWlLk6GJQsqaUBKTNV-2" value="" style="rounded=0;html=1;jettySize=auto;orthogonalLoop=1;fontSize=11;endArrow=block;endFill=0;endSize=8;strokeWidth=1;shadow=0;labelBackgroundColor=none;edgeStyle=orthogonalEdgeStyle;" parent="WIyWlLk6GJQsqaUBKTNV-1" source="WIyWlLk6GJQsqaUBKTNV-3" edge="1">
          <mxGeometry relative="1" as="geometry">
            <mxPoint x="140" y="260" as="targetPoint" />
          </mxGeometry>
        </mxCell>
        <mxCell id="i7NyrKVAwEz__Lr0BcPz-4" value="" style="edgeStyle=orthogonalEdgeStyle;rounded=0;orthogonalLoop=1;jettySize=auto;html=1;" edge="1" parent="WIyWlLk6GJQsqaUBKTNV-1" source="WIyWlLk6GJQsqaUBKTNV-3" target="WIyWlLk6GJQsqaUBKTNV-11">
          <mxGeometry relative="1" as="geometry" />
        </mxCell>
        <mxCell id="WIyWlLk6GJQsqaUBKTNV-3" value="登录" style="rounded=1;whiteSpace=wrap;html=1;fontSize=12;glass=0;strokeWidth=1;shadow=0;" parent="WIyWlLk6GJQsqaUBKTNV-1" vertex="1">
          <mxGeometry x="80" y="170" width="120" height="40" as="geometry" />
        </mxCell>
        <mxCell id="WIyWlLk6GJQsqaUBKTNV-5" value="" style="edgeStyle=orthogonalEdgeStyle;rounded=0;html=1;jettySize=auto;orthogonalLoop=1;fontSize=11;endArrow=block;endFill=0;endSize=8;strokeWidth=1;shadow=0;labelBackgroundColor=none;" parent="WIyWlLk6GJQsqaUBKTNV-1" target="WIyWlLk6GJQsqaUBKTNV-7" edge="1">
          <mxGeometry x="0.2" y="10" relative="1" as="geometry">
            <mxPoint as="offset" />
            <mxPoint x="190" y="300" as="sourcePoint" />
          </mxGeometry>
        </mxCell>
        <mxCell id="WIyWlLk6GJQsqaUBKTNV-7" value="参与活动" style="rounded=1;whiteSpace=wrap;html=1;fontSize=12;glass=0;strokeWidth=1;shadow=0;" parent="WIyWlLk6GJQsqaUBKTNV-1" vertex="1">
          <mxGeometry x="240" y="350" width="70" height="40" as="geometry" />
        </mxCell>
        <mxCell id="i7NyrKVAwEz__Lr0BcPz-10" value="" style="edgeStyle=orthogonalEdgeStyle;rounded=0;orthogonalLoop=1;jettySize=auto;html=1;" edge="1" parent="WIyWlLk6GJQsqaUBKTNV-1" source="WIyWlLk6GJQsqaUBKTNV-11" target="i7NyrKVAwEz__Lr0BcPz-6">
          <mxGeometry relative="1" as="geometry" />
        </mxCell>
        <mxCell id="WIyWlLk6GJQsqaUBKTNV-11" value="图书借阅查询" style="rounded=1;whiteSpace=wrap;html=1;fontSize=12;glass=0;strokeWidth=1;shadow=0;" parent="WIyWlLk6GJQsqaUBKTNV-1" vertex="1">
          <mxGeometry x="230" y="170" width="90" height="40" as="geometry" />
        </mxCell>
        <mxCell id="i7NyrKVAwEz__Lr0BcPz-1" value="" style="edgeStyle=orthogonalEdgeStyle;rounded=0;orthogonalLoop=1;jettySize=auto;html=1;" edge="1" parent="WIyWlLk6GJQsqaUBKTNV-1" source="i7NyrKVAwEz__Lr0BcPz-0" target="WIyWlLk6GJQsqaUBKTNV-3">
          <mxGeometry relative="1" as="geometry" />
        </mxCell>
        <mxCell id="i7NyrKVAwEz__Lr0BcPz-0" value="" style="verticalLabelPosition=bottom;verticalAlign=top;html=1;shape=mxgraph.flowchart.on-page_reference;" vertex="1" parent="WIyWlLk6GJQsqaUBKTNV-1">
          <mxGeometry x="110" y="60" width="60" height="60" as="geometry" />
        </mxCell>
        <mxCell id="i7NyrKVAwEz__Lr0BcPz-2" value="开始" style="text;html=1;align=center;verticalAlign=middle;resizable=0;points=[];autosize=1;" vertex="1" parent="WIyWlLk6GJQsqaUBKTNV-1">
          <mxGeometry x="130" y="130" width="40" height="20" as="geometry" />
        </mxCell>
        <mxCell id="i7NyrKVAwEz__Lr0BcPz-9" value="" style="edgeStyle=orthogonalEdgeStyle;rounded=0;orthogonalLoop=1;jettySize=auto;html=1;" edge="1" parent="WIyWlLk6GJQsqaUBKTNV-1" source="i7NyrKVAwEz__Lr0BcPz-3" target="i7NyrKVAwEz__Lr0BcPz-8">
          <mxGeometry relative="1" as="geometry" />
        </mxCell>
        <mxCell id="i7NyrKVAwEz__Lr0BcPz-20" value="" style="edgeStyle=orthogonalEdgeStyle;rounded=0;orthogonalLoop=1;jettySize=auto;html=1;" edge="1" parent="WIyWlLk6GJQsqaUBKTNV-1" source="i7NyrKVAwEz__Lr0BcPz-3" target="i7NyrKVAwEz__Lr0BcPz-19">
          <mxGeometry relative="1" as="geometry" />
        </mxCell>
        <mxCell id="i7NyrKVAwEz__Lr0BcPz-3" value="活动参与" style="rounded=1;whiteSpace=wrap;html=1;fontSize=12;glass=0;strokeWidth=1;shadow=0;" vertex="1" parent="WIyWlLk6GJQsqaUBKTNV-1">
          <mxGeometry x="80" y="260" width="110" height="50" as="geometry" />
        </mxCell>
        <mxCell id="i7NyrKVAwEz__Lr0BcPz-5" value="申请借阅" style="rounded=1;whiteSpace=wrap;html=1;" vertex="1" parent="WIyWlLk6GJQsqaUBKTNV-1">
          <mxGeometry x="350" y="130" width="80" height="40" as="geometry" />
        </mxCell>
        <mxCell id="i7NyrKVAwEz__Lr0BcPz-6" value="申请归还" style="rounded=1;whiteSpace=wrap;html=1;" vertex="1" parent="WIyWlLk6GJQsqaUBKTNV-1">
          <mxGeometry x="350" y="190" width="80" height="40" as="geometry" />
        </mxCell>
        <mxCell id="i7NyrKVAwEz__Lr0BcPz-7" value="申请查询" style="rounded=1;whiteSpace=wrap;html=1;" vertex="1" parent="WIyWlLk6GJQsqaUBKTNV-1">
          <mxGeometry x="350" y="250" width="80" height="40" as="geometry" />
        </mxCell>
        <mxCell id="i7NyrKVAwEz__Lr0BcPz-8" value="查看活动" style="rounded=1;whiteSpace=wrap;html=1;fontSize=12;glass=0;strokeWidth=1;shadow=0;" vertex="1" parent="WIyWlLk6GJQsqaUBKTNV-1">
          <mxGeometry x="40" y="350" width="70" height="40" as="geometry" />
        </mxCell>
        <mxCell id="i7NyrKVAwEz__Lr0BcPz-13" value="" style="endArrow=classic;html=1;exitX=1;exitY=0.25;exitDx=0;exitDy=0;entryX=0;entryY=0.5;entryDx=0;entryDy=0;" edge="1" parent="WIyWlLk6GJQsqaUBKTNV-1" source="WIyWlLk6GJQsqaUBKTNV-11" target="i7NyrKVAwEz__Lr0BcPz-5">
          <mxGeometry width="50" height="50" relative="1" as="geometry">
            <mxPoint x="220" y="270" as="sourcePoint" />
            <mxPoint x="270" y="220" as="targetPoint" />
          </mxGeometry>
        </mxCell>
        <mxCell id="i7NyrKVAwEz__Lr0BcPz-14" value="" style="endArrow=classic;html=1;exitX=0.75;exitY=1;exitDx=0;exitDy=0;entryX=0;entryY=0.5;entryDx=0;entryDy=0;" edge="1" parent="WIyWlLk6GJQsqaUBKTNV-1" source="WIyWlLk6GJQsqaUBKTNV-11" target="i7NyrKVAwEz__Lr0BcPz-7">
          <mxGeometry width="50" height="50" relative="1" as="geometry">
            <mxPoint x="220" y="270" as="sourcePoint" />
            <mxPoint x="270" y="220" as="targetPoint" />
          </mxGeometry>
        </mxCell>
        <mxCell id="i7NyrKVAwEz__Lr0BcPz-17" value="" style="curved=1;endArrow=classic;html=1;exitX=1;exitY=0.5;exitDx=0;exitDy=0;entryX=1;entryY=0.5;entryDx=0;entryDy=0;" edge="1" parent="WIyWlLk6GJQsqaUBKTNV-1" source="i7NyrKVAwEz__Lr0BcPz-6" target="WIyWlLk6GJQsqaUBKTNV-7">
          <mxGeometry width="50" height="50" relative="1" as="geometry">
            <mxPoint x="250" y="270" as="sourcePoint" />
            <mxPoint x="300" y="220" as="targetPoint" />
            <Array as="points">
              <mxPoint x="500" y="380" />
            </Array>
          </mxGeometry>
        </mxCell>
        <mxCell id="i7NyrKVAwEz__Lr0BcPz-18" value="归还成功增加积分" style="edgeLabel;html=1;align=center;verticalAlign=middle;resizable=0;points=[];" vertex="1" connectable="0" parent="i7NyrKVAwEz__Lr0BcPz-17">
          <mxGeometry x="-0.3773" y="-39" relative="1" as="geometry">
            <mxPoint as="offset" />
          </mxGeometry>
        </mxCell>
        <mxCell id="i7NyrKVAwEz__Lr0BcPz-19" value="积分查询" style="rounded=1;whiteSpace=wrap;html=1;fontSize=12;glass=0;strokeWidth=1;shadow=0;" vertex="1" parent="WIyWlLk6GJQsqaUBKTNV-1">
          <mxGeometry x="130" y="350" width="70" height="40" as="geometry" />
        </mxCell>
        <mxCell id="i7NyrKVAwEz__Lr0BcPz-21" value="" style="curved=1;endArrow=classic;html=1;exitX=0.5;exitY=1;exitDx=0;exitDy=0;entryX=0.25;entryY=1;entryDx=0;entryDy=0;" edge="1" parent="WIyWlLk6GJQsqaUBKTNV-1" source="i7NyrKVAwEz__Lr0BcPz-19" target="WIyWlLk6GJQsqaUBKTNV-7">
          <mxGeometry width="50" height="50" relative="1" as="geometry">
            <mxPoint x="190" y="350" as="sourcePoint" />
            <mxPoint x="240" y="300" as="targetPoint" />
            <Array as="points">
              <mxPoint x="190" y="430" />
              <mxPoint x="240" y="420" />
            </Array>
          </mxGeometry>
        </mxCell>
        <mxCell id="i7NyrKVAwEz__Lr0BcPz-22" value="可以申请积分改动" style="edgeLabel;html=1;align=center;verticalAlign=middle;resizable=0;points=[];" vertex="1" connectable="0" parent="i7NyrKVAwEz__Lr0BcPz-21">
          <mxGeometry x="0.3258" y="1" relative="1" as="geometry">
            <mxPoint as="offset" />
          </mxGeometry>
        </mxCell>
      </root>
    </mxGraphModel>
  </diagram>
</mxfile>
